<svg xmlns="http://www.w3.org/2000/svg" xmlns:xlink="http://www.w3.org/1999/xlink" width="188" zoomAndPan="magnify" viewBox="0 0 141.75 31.5" height="41" preserveAspectRatio="xMidYMid meet" version="1.0"><defs><g/></defs><g fill="#114817" fill-opacity="1"><g transform="translate(1.124899, 23.093628)"><g><path d="M 15.375 0 L 10.578125 0 L 6.71875 -5.625 C 6.644531 -5.726562 6.585938 -5.878906 6.546875 -6.078125 C 6.503906 -6.273438 6.472656 -6.535156 6.453125 -6.859375 L 6.34375 -6.859375 L 6.34375 0 L 1.265625 0 L 1.265625 -15.875 L 6.0625 -15.875 L 9.921875 -10.25 C 9.992188 -10.144531 10.050781 -9.992188 10.09375 -9.796875 C 10.132812 -9.597656 10.164062 -9.335938 10.1875 -9.015625 L 10.296875 -9.015625 L 10.296875 -15.875 L 15.375 -15.875 Z M 15.375 0 "/></g></g></g><g fill="#114817" fill-opacity="1"><g transform="translate(16.70776, 23.093628)"><g><path d="M 0.765625 -6.34375 C 0.765625 -8.625 1.289062 -10.316406 2.34375 -11.421875 C 3.40625 -12.523438 5.125 -13.078125 7.5 -13.078125 C 9.863281 -13.078125 11.578125 -12.523438 12.640625 -11.421875 C 13.703125 -10.316406 14.234375 -8.625 14.234375 -6.34375 C 14.234375 -4.070312 13.703125 -2.382812 12.640625 -1.28125 C 11.578125 -0.175781 9.863281 0.375 7.5 0.375 C 5.175781 0.375 3.472656 -0.164062 2.390625 -1.25 C 1.304688 -2.332031 0.765625 -4.03125 0.765625 -6.34375 Z M 6.21875 -8.296875 L 6.21875 -3.328125 L 7.015625 -3.328125 C 7.628906 -3.328125 8.070312 -3.390625 8.34375 -3.515625 C 8.625 -3.640625 8.765625 -3.9375 8.765625 -4.40625 L 8.765625 -9.375 L 7.984375 -9.375 C 7.359375 -9.375 6.90625 -9.3125 6.625 -9.1875 C 6.351562 -9.0625 6.21875 -8.765625 6.21875 -8.296875 Z M 6.21875 -8.296875 "/></g></g></g><g fill="#114817" fill-opacity="1"><g transform="translate(30.639161, 23.093628)"><g><path d="M 13.84375 -16.890625 L 13.84375 0 L 11.3125 0 L 10.203125 -1.0625 C 9.484375 -0.101562 8.15625 0.375 6.21875 0.375 C 5.207031 0.375 4.351562 0.191406 3.65625 -0.171875 C 2.96875 -0.535156 2.40625 -1.023438 1.96875 -1.640625 C 1.539062 -2.253906 1.234375 -2.96875 1.046875 -3.78125 C 0.859375 -4.601562 0.765625 -5.457031 0.765625 -6.34375 C 0.765625 -7.195312 0.847656 -8.003906 1.015625 -8.765625 C 1.179688 -9.535156 1.460938 -10.210938 1.859375 -10.796875 C 2.253906 -11.378906 2.773438 -11.84375 3.421875 -12.1875 C 4.078125 -12.53125 4.882812 -12.703125 5.84375 -12.703125 L 8.765625 -12.703125 L 8.765625 -16.515625 Z M 6.21875 -8.296875 L 6.21875 -3.328125 L 7.015625 -3.328125 C 7.585938 -3.328125 8.007812 -3.378906 8.28125 -3.484375 C 8.5625 -3.585938 8.722656 -3.835938 8.765625 -4.234375 L 8.765625 -9.375 L 7.984375 -9.375 C 7.359375 -9.375 6.90625 -9.3125 6.625 -9.1875 C 6.351562 -9.0625 6.21875 -8.765625 6.21875 -8.296875 Z M 6.21875 -8.296875 "/></g></g></g><g fill="#114817" fill-opacity="1"><g transform="translate(44.697605, 23.093628)"><g><path d="M 6.21875 -4.3125 L 6.21875 -3.4375 C 6.476562 -3.40625 6.734375 -3.378906 6.984375 -3.359375 C 7.242188 -3.347656 7.5 -3.34375 7.75 -3.34375 C 9.332031 -3.34375 10.925781 -3.597656 12.53125 -4.109375 L 13.125 -0.375 C 11.21875 0.125 9.34375 0.375 7.5 0.375 C 5.125 0.375 3.40625 -0.175781 2.34375 -1.28125 C 1.289062 -2.382812 0.765625 -4.070312 0.765625 -6.34375 C 0.765625 -8.625 1.296875 -10.316406 2.359375 -11.421875 C 3.421875 -12.523438 5.132812 -13.078125 7.5 -13.078125 C 8.675781 -13.078125 9.660156 -13.003906 10.453125 -12.859375 C 11.242188 -12.710938 11.882812 -12.46875 12.375 -12.125 C 12.863281 -11.78125 13.207031 -11.3125 13.40625 -10.71875 C 13.613281 -10.132812 13.71875 -9.398438 13.71875 -8.515625 C 13.71875 -7.773438 13.59375 -7.140625 13.34375 -6.609375 C 13.101562 -6.085938 12.691406 -5.65625 12.109375 -5.3125 C 11.535156 -4.976562 10.765625 -4.726562 9.796875 -4.5625 C 8.835938 -4.394531 7.644531 -4.3125 6.21875 -4.3125 Z M 6.21875 -8.296875 L 6.21875 -7.265625 L 7.265625 -7.265625 C 7.878906 -7.265625 8.320312 -7.328125 8.59375 -7.453125 C 8.875 -7.578125 9.015625 -7.875 9.015625 -8.34375 L 9.015625 -9.375 L 7.984375 -9.375 C 7.359375 -9.375 6.90625 -9.3125 6.625 -9.1875 C 6.351562 -9.0625 6.21875 -8.765625 6.21875 -8.296875 Z M 6.21875 -8.296875 "/></g></g></g><g fill="#1f3bb3" fill-opacity="1"><g transform="translate(57.991509, 23.093628)"><g><path d="M 5.625 -2.515625 L 9.828125 -2.515625 L 10.421875 0 L 15.765625 0 L 11.671875 -15.875 L 3.8125 -15.875 L -0.296875 0 L 5.0625 0 Z M 7.875 -11.015625 L 8.890625 -6.5625 L 6.5625 -6.5625 L 7.59375 -11.015625 Z M 7.875 -11.015625 "/></g></g></g><g fill="#1f3bb3" fill-opacity="1"><g transform="translate(72.409881, 23.093628)"><g><path d="M 1.265625 0 L 1.265625 -12.703125 L 3.8125 -12.703125 L 5.203125 -11.28125 C 6.222656 -12.21875 7.484375 -12.816406 8.984375 -13.078125 L 9.265625 -8.28125 C 9.078125 -8.28125 8.835938 -8.25 8.546875 -8.1875 C 8.265625 -8.132812 7.976562 -8.066406 7.6875 -7.984375 C 7.40625 -7.898438 7.144531 -7.796875 6.90625 -7.671875 C 6.664062 -7.554688 6.476562 -7.421875 6.34375 -7.265625 L 6.34375 0 Z M 1.265625 0 "/></g></g></g><g fill="#1f3bb3" fill-opacity="1"><g transform="translate(80.878787, 23.093628)"><g><path d="M 10.578125 -3.8125 L 10.90625 -0.140625 C 10.03125 0.203125 8.894531 0.375 7.5 0.375 C 5.125 0.375 3.40625 -0.175781 2.34375 -1.28125 C 1.289062 -2.382812 0.765625 -4.070312 0.765625 -6.34375 C 0.765625 -8.625 1.289062 -10.316406 2.34375 -11.421875 C 3.40625 -12.523438 5.125 -13.078125 7.5 -13.078125 C 9.007812 -13.078125 10.144531 -12.90625 10.90625 -12.5625 L 10.296875 -9.109375 C 9.835938 -9.191406 9.429688 -9.253906 9.078125 -9.296875 C 8.722656 -9.347656 8.414062 -9.375 8.15625 -9.375 C 6.863281 -9.375 6.21875 -8.925781 6.21875 -8.03125 L 6.21875 -3.46875 C 6.457031 -3.425781 6.734375 -3.390625 7.046875 -3.359375 C 7.367188 -3.335938 7.726562 -3.328125 8.125 -3.328125 C 8.914062 -3.328125 9.734375 -3.488281 10.578125 -3.8125 Z M 10.578125 -3.8125 "/></g></g></g><g fill="#1f3bb3" fill-opacity="1"><g transform="translate(91.486109, 23.093628)"><g><path d="M 6.34375 -7.828125 L 6.34375 0 L 1.265625 0 L 1.265625 -16.515625 L 6.34375 -16.890625 L 6.34375 -12.234375 C 7.4375 -12.796875 8.640625 -13.078125 9.953125 -13.078125 C 11.273438 -13.078125 12.273438 -12.816406 12.953125 -12.296875 C 13.628906 -11.785156 13.96875 -11.070312 13.96875 -10.15625 L 13.96875 0 L 8.890625 0 L 8.890625 -8.890625 L 8.109375 -8.890625 C 7.484375 -8.890625 7.03125 -8.828125 6.75 -8.703125 C 6.476562 -8.578125 6.34375 -8.285156 6.34375 -7.828125 Z M 6.34375 -7.828125 "/></g></g></g><g fill="#1f3bb3" fill-opacity="1"><g transform="translate(105.544553, 23.093628)"><g><path d="M 6.34375 0 L 1.265625 0 L 1.265625 -12.0625 L 6.34375 -12.703125 Z M 1 -15.09375 C 1 -15.476562 1.039062 -15.800781 1.125 -16.0625 C 1.207031 -16.320312 1.351562 -16.53125 1.5625 -16.6875 C 1.78125 -16.851562 2.070312 -16.972656 2.4375 -17.046875 C 2.800781 -17.117188 3.265625 -17.15625 3.828125 -17.15625 C 4.390625 -17.15625 4.851562 -17.117188 5.21875 -17.046875 C 5.582031 -16.972656 5.867188 -16.851562 6.078125 -16.6875 C 6.285156 -16.53125 6.429688 -16.320312 6.515625 -16.0625 C 6.597656 -15.800781 6.640625 -15.476562 6.640625 -15.09375 C 6.640625 -14.71875 6.597656 -14.398438 6.515625 -14.140625 C 6.429688 -13.890625 6.285156 -13.679688 6.078125 -13.515625 C 5.867188 -13.359375 5.582031 -13.242188 5.21875 -13.171875 C 4.851562 -13.109375 4.390625 -13.078125 3.828125 -13.078125 C 3.421875 -13.078125 3.046875 -13.09375 2.703125 -13.125 C 2.359375 -13.15625 2.054688 -13.238281 1.796875 -13.375 C 1.546875 -13.507812 1.347656 -13.707031 1.203125 -13.96875 C 1.066406 -14.238281 1 -14.613281 1 -15.09375 Z M 1 -15.09375 "/></g></g></g><g fill="#1f3bb3" fill-opacity="1"><g transform="translate(112.107928, 23.093628)"><g><path d="M 10.03125 0 L 13.21875 -12.703125 L 8.125 -12.703125 L 6.734375 -4.453125 L 6.484375 -4.453125 L 5.078125 -12.703125 L 0 -12.703125 L 3.171875 0 Z M 10.03125 0 "/></g></g></g><g fill="#1f3bb3" fill-opacity="1"><g transform="translate(124.260839, 23.093628)"><g><path d="M 6.21875 -4.3125 L 6.21875 -3.4375 C 6.476562 -3.40625 6.734375 -3.378906 6.984375 -3.359375 C 7.242188 -3.347656 7.5 -3.34375 7.75 -3.34375 C 9.332031 -3.34375 10.925781 -3.597656 12.53125 -4.109375 L 13.125 -0.375 C 11.21875 0.125 9.34375 0.375 7.5 0.375 C 5.125 0.375 3.40625 -0.175781 2.34375 -1.28125 C 1.289062 -2.382812 0.765625 -4.070312 0.765625 -6.34375 C 0.765625 -8.625 1.296875 -10.316406 2.359375 -11.421875 C 3.421875 -12.523438 5.132812 -13.078125 7.5 -13.078125 C 8.675781 -13.078125 9.660156 -13.003906 10.453125 -12.859375 C 11.242188 -12.710938 11.882812 -12.46875 12.375 -12.125 C 12.863281 -11.78125 13.207031 -11.3125 13.40625 -10.71875 C 13.613281 -10.132812 13.71875 -9.398438 13.71875 -8.515625 C 13.71875 -7.773438 13.59375 -7.140625 13.34375 -6.609375 C 13.101562 -6.085938 12.691406 -5.65625 12.109375 -5.3125 C 11.535156 -4.976562 10.765625 -4.726562 9.796875 -4.5625 C 8.835938 -4.394531 7.644531 -4.3125 6.21875 -4.3125 Z M 6.21875 -8.296875 L 6.21875 -7.265625 L 7.265625 -7.265625 C 7.878906 -7.265625 8.320312 -7.328125 8.59375 -7.453125 C 8.875 -7.578125 9.015625 -7.875 9.015625 -8.34375 L 9.015625 -9.375 L 7.984375 -9.375 C 7.359375 -9.375 6.90625 -9.3125 6.625 -9.1875 C 6.351562 -9.0625 6.21875 -8.765625 6.21875 -8.296875 Z M 6.21875 -8.296875 "/></g></g></g></svg>