<svg version="1.1" id="Layer_1" xmlns="http://www.w3.org/2000/svg" xmlns:xlink="http://www.w3.org/1999/xlink" x="0px" y="0px"
	 width="100%" viewBox="0 0 748 241" enable-background="new 0 0 748 241" xml:space="preserve">
<path fill="#000000" opacity="1.000000" stroke="none" 
	d="
M527.000000,242.000000 
	C351.333344,242.000000 176.166702,242.000000 1.000047,242.000000 
	C1.000031,161.666702 1.000031,81.333397 1.000016,1.000069 
	C250.333267,1.000046 499.666534,1.000046 748.999878,1.000023 
	C748.999878,81.333260 748.999878,161.666519 748.999939,241.999893 
	C675.166687,242.000000 601.333313,242.000000 527.000000,242.000000 
M402.982117,103.505295 
	C402.930054,102.893394 402.877991,102.281487 402.699341,101.334846 
	C402.699341,101.334846 402.596954,100.991936 402.760925,100.465225 
	C402.576508,100.191483 402.253479,99.929893 402.228241,99.642181 
	C401.805573,94.822464 397.831909,93.363167 394.406555,93.444351 
	C391.012146,93.524811 386.986176,94.769684 386.921021,99.979874 
	C386.745697,113.996429 386.115540,128.012009 386.224701,142.023621 
	C386.247894,145.001495 387.138489,149.014862 391.357361,149.975739 
	C398.822601,151.675949 403.666565,147.891449 403.986450,140.134094 
	C404.075348,137.978607 403.906281,135.811493 404.017700,133.658096 
	C404.338989,127.450455 404.743011,121.247101 405.692627,114.845688 
	C406.475800,113.935287 407.258972,113.024887 408.874878,112.007835 
	C410.591949,111.671906 412.297241,111.139107 414.028229,111.035347 
	C420.329132,110.657646 424.867767,104.516571 422.762909,98.585960 
	C421.897583,96.147766 420.676727,93.177391 416.138611,94.013504 
	C415.127563,94.064735 414.116547,94.115967 412.617859,94.012581 
	C411.943359,94.385918 411.268829,94.759254 410.274536,95.297104 
	C410.274536,95.297104 410.120850,95.622253 409.600037,95.950478 
	C408.361938,97.619652 407.123840,99.288818 405.275085,101.200684 
	C404.907990,102.192802 404.540924,103.184929 403.890686,104.640739 
	C403.538239,104.427254 403.185760,104.213776 402.982117,103.505295 
M645.009155,126.009048 
	C645.009155,126.009048 645.057983,126.096962 645.983948,126.006805 
	C652.283203,126.004478 658.585571,126.122101 664.880554,125.956993 
	C668.966553,125.849838 673.716431,125.368958 674.764160,120.775169 
	C675.682190,116.750069 675.446777,112.089119 674.393188,108.055893 
	C671.016968,95.131836 662.432434,94.255287 650.339172,93.013062 
	C649.892883,93.064278 649.446655,93.115501 648.183350,93.012146 
	C646.123962,93.348862 643.998474,93.465706 642.017151,94.061775 
	C634.854736,96.216469 628.754395,99.840897 628.049622,108.121582 
	C627.325439,116.629799 626.436951,125.284904 627.240295,133.721481 
	C628.241699,144.238800 638.589722,150.313095 646.512573,150.021606 
	C649.998840,149.893341 653.543213,150.374908 656.974548,149.922485 
	C664.328308,148.952866 672.326965,146.676270 672.990540,138.569016 
	C672.990540,138.569016 673.042664,138.113373 673.578918,137.931458 
	C673.400085,137.583115 673.221313,137.234772 672.990479,136.430954 
	C672.990479,136.430954 672.833069,136.000427 672.983032,135.228043 
	C670.367737,130.071671 663.166870,129.143814 658.781921,133.910553 
	C655.690125,137.271545 652.423950,138.716187 647.872192,137.338409 
	C647.286255,136.878189 646.700317,136.417969 645.996094,135.133499 
	C645.696472,132.108246 645.396790,129.082993 645.009155,126.009048 
M172.771118,150.010925 
	C173.499451,150.044769 174.227768,150.078613 175.294571,150.776215 
	C176.878769,150.553848 178.462952,150.331467 180.870300,150.011154 
	C189.696060,149.656250 196.940308,143.475479 197.936600,134.926376 
	C198.619553,129.066010 198.888657,123.134033 198.952881,117.229828 
	C199.081955,105.364708 194.731903,95.713501 180.977676,93.520576 
	C167.985107,91.449097 154.994308,94.546951 151.502914,109.302994 
	C149.972229,115.772339 150.991959,122.868004 151.023026,129.678497 
	C151.066788,139.268021 156.362045,146.816391 165.311569,149.779846 
	C167.556717,149.889587 169.801880,149.999329 172.771118,150.010925 
M79.000015,141.266815 
	C78.744987,145.468155 78.972069,149.465714 84.447052,149.974213 
	C92.360939,150.709229 95.061890,149.145630 95.469429,142.180145 
	C96.077087,131.794220 95.882362,121.360451 95.990875,110.946640 
	C96.040543,106.179657 95.999321,101.411728 95.999321,96.644218 
	C101.926468,110.987206 106.580765,125.555428 112.456337,139.613205 
	C116.884644,150.208298 117.532066,150.523209 127.568001,150.006836 
	C128.564713,149.955551 129.587143,149.867676 130.562393,150.021027 
	C137.567932,151.122559 139.866302,146.422546 139.918396,141.042328 
	C140.118362,120.390945 140.037613,99.736351 139.973312,79.083244 
	C139.956680,73.743050 136.797577,71.014717 131.079468,71.000259 
	C125.638863,70.986504 123.136398,73.367622 123.025864,78.989426 
	C122.911293,84.816734 123.000969,90.648048 123.001038,96.477615 
	C123.001160,106.105988 123.001076,115.734360 123.001076,125.362732 
	C117.070450,111.249069 112.207069,96.970718 106.834366,82.886650 
	C105.412910,79.160408 102.763771,75.712112 100.001724,72.771805 
	C98.712891,71.399796 95.832321,71.194458 93.636009,71.057625 
	C80.847054,70.260841 78.654640,72.384445 78.909088,85.357964 
	C79.268295,103.672401 79.000038,121.999161 79.000015,141.266815 
M358.246552,131.055344 
	C358.498077,134.950577 358.526794,138.876892 359.064484,142.732208 
	C359.591919,146.514191 360.823151,149.942078 365.731171,150.034790 
	C369.629333,150.108414 374.368530,150.412277 374.781555,145.599258 
	C375.488770,137.357513 376.247864,128.723984 374.573669,120.762070 
	C371.684235,107.020836 367.061340,93.633141 362.938171,80.166801 
	C360.788269,73.145058 357.429840,71.006424 349.959076,71.000626 
	C348.461151,70.999458 346.963257,70.996353 345.465332,71.001183 
	C339.289062,71.021095 335.970947,73.344933 334.029755,79.257980 
	C332.083221,85.187363 330.333923,91.181267 328.409332,97.118095 
	C323.579376,112.016991 319.287109,126.970619 320.947296,142.953629 
	C321.471497,148.000107 323.297577,149.935379 328.824615,149.999573 
	C334.552185,150.066116 336.607086,148.348907 337.020905,143.415955 
	C337.359161,139.383667 337.888977,135.367462 338.371490,131.003891 
	C344.701965,131.003891 350.991791,131.003891 358.246552,131.055344 
M207.000305,129.392609 
	C206.528564,134.949387 207.354660,140.419037 211.232849,144.444214 
	C213.663483,146.966934 217.261200,149.153229 220.653702,149.787628 
	C226.647018,150.908386 232.842346,150.619385 236.084183,143.232071 
	C238.320023,149.302032 241.705200,151.461731 248.063812,149.722931 
	C250.474731,149.063660 253.690933,145.362030 253.740143,142.989059 
	C254.181366,121.707779 254.078644,100.413002 253.935593,79.123535 
	C253.904007,74.422562 250.637558,71.275520 246.516754,71.001648 
	C241.139389,70.644257 238.098694,72.728920 237.016068,77.857368 
	C236.449768,80.539871 236.138397,83.309044 236.042831,86.050613 
	C235.886566,90.534294 236.000565,95.027397 236.000565,99.130875 
	C233.541626,97.299324 231.617599,94.962517 229.205933,94.229012 
	C219.637955,91.318916 210.389893,95.968124 208.237411,105.807335 
	C206.644913,113.086830 207.329926,120.864578 207.000305,129.392609 
M503.999573,135.413910 
	C504.645081,127.783737 505.345215,120.157623 505.912506,112.521637 
	C506.184998,108.853340 508.278046,107.527176 511.559357,108.064316 
	C514.602478,108.562469 515.073486,110.910286 515.038086,113.657066 
	C514.932922,121.813820 514.841064,129.977692 515.091614,138.128098 
	C515.172852,140.769714 516.085144,143.470795 517.043091,145.982239 
	C518.893677,150.833893 523.415039,150.736649 527.079407,149.741898 
	C529.390930,149.114410 531.892883,146.319183 532.758728,143.933487 
	C533.943970,140.667908 533.985229,136.862946 533.932495,133.297806 
	C533.818054,125.555565 533.218079,117.821541 533.033569,110.078972 
	C532.864563,102.987854 529.474976,97.874130 523.242615,95.160110 
	C520.284119,93.871750 516.427979,93.557541 513.244690,94.174728 
	C509.991089,94.805542 507.063385,97.117310 503.999481,98.689911 
	C503.999481,93.271484 504.116699,87.021378 503.966248,80.777718 
	C503.818329,74.639992 499.976990,70.912651 494.244263,71.000374 
	C488.881958,71.082436 486.019592,74.419121 486.010559,80.805672 
	C485.982086,100.951172 485.986847,121.096741 486.009369,141.242249 
	C486.015259,146.518280 488.755554,149.846527 493.076233,149.999603 
	C500.310028,150.255890 503.461273,147.943939 503.975189,141.872223 
	C504.129120,140.053833 503.999390,138.211411 503.999573,135.413910 
M312.997742,119.943153 
	C312.998383,117.279671 313.083771,114.613014 312.983887,111.953308 
	C312.679993,103.861244 307.135742,95.926605 300.686310,95.102745 
	C294.847809,94.356926 288.918030,94.099281 283.025452,94.057289 
	C274.614380,93.997345 267.546021,98.462257 266.277100,106.762650 
	C264.822388,116.278244 265.284637,126.134804 265.527435,135.827866 
	C265.587128,138.210846 267.899963,140.619766 269.397156,142.870300 
	C276.413086,153.416580 300.332001,151.513992 308.222198,145.013031 
	C310.198730,143.384506 312.039246,139.817307 311.624969,137.567902 
	C311.224182,135.391525 308.044983,132.623306 305.707855,132.199051 
	C303.055542,131.717606 299.084930,132.690186 297.289703,134.564941 
	C294.046387,137.951950 290.379272,139.103668 286.654297,137.652206 
	C282.516266,136.039810 282.813568,131.606842 283.018219,127.758461 
	C283.042786,127.296959 283.190155,126.841980 283.356049,126.001549 
	C289.011993,126.001549 294.688416,126.472717 300.243378,125.853920 
	C304.767090,125.350006 310.413666,126.654984 312.997742,119.943153 
M460.018799,127.473869 
	C459.015411,129.470718 457.191071,131.463455 457.181000,133.465286 
	C457.160583,137.526962 454.920563,137.764603 451.897369,138.064301 
	C448.402985,138.410721 446.238586,136.892471 446.105316,133.689377 
	C445.802460,126.409439 446.051666,119.108253 445.959808,111.817169 
	C445.906494,107.584755 448.899689,107.015800 451.878174,107.097015 
	C454.757355,107.175537 456.825012,108.267998 457.233765,112.053032 
	C457.491333,114.437981 459.805573,118.286293 461.546173,118.489532 
	C465.710846,118.975807 470.134369,117.919319 474.325684,116.939491 
	C475.172485,116.741531 475.814606,114.162514 475.938019,112.631836 
	C476.526276,105.335068 471.685089,98.586342 464.653259,95.906181 
	C458.155426,93.429565 451.699707,92.586632 444.776459,93.917320 
	C437.209778,95.371658 431.183105,98.608185 429.088104,106.385826 
	C426.783173,114.943062 426.678070,123.609146 427.785217,132.536682 
	C428.851196,141.132004 437.482849,150.009644 446.831390,150.000244 
	C450.162201,149.996887 453.495117,150.076675 456.823425,149.985199 
	C467.216583,149.699539 475.692047,141.850723 476.087616,132.714355 
	C476.263336,128.655701 474.042175,126.608246 470.911926,126.191879 
	C467.621948,125.754280 464.149353,126.689804 460.018799,127.473869 
M584.967041,131.729797 
	C586.552368,135.916321 588.367310,140.033173 589.663818,144.307312 
	C591.218750,149.433533 594.639343,150.522919 599.453003,150.060410 
	C603.819824,149.640808 604.563843,146.152481 605.981506,143.195190 
	C606.807922,141.471329 607.371704,139.618805 608.014832,137.810364 
	C612.090515,126.349991 616.434387,114.971085 619.987915,103.350677 
	C620.696289,101.034218 619.019104,97.260445 617.269470,95.114517 
	C615.322327,92.726280 611.612366,91.880554 609.138306,94.547440 
	C606.651245,97.228363 604.439392,100.475029 603.131165,103.868607 
	C601.010925,109.368340 599.727417,115.190598 597.793884,121.907425 
	C595.255432,113.910004 593.220154,107.169769 590.966431,100.503365 
	C589.229614,95.365891 584.612976,92.512550 580.603638,93.799889 
	C575.089172,95.570511 573.103455,98.925507 575.054260,104.892815 
	C577.934082,113.702309 581.360779,122.333061 584.967041,131.729797 
M556.273682,149.999481 
	C562.286316,150.069626 563.676270,145.330444 563.827271,141.172653 
	C564.291382,128.386246 564.234497,115.565857 563.891724,102.771767 
	C563.726990,96.621429 559.438293,92.586067 554.636475,93.029297 
	C549.024048,93.547340 545.953125,98.363419 545.981506,103.984657 
	C546.042786,116.122528 545.963074,128.261078 546.015015,140.399033 
	C546.043640,147.104782 548.823059,149.866348 556.273682,149.999481 
M547.024963,74.887474 
	C546.796326,75.638145 546.265869,76.443604 546.390503,77.130142 
	C546.978088,80.366463 546.784668,84.429398 548.694946,86.564896 
	C551.006836,89.149460 555.019043,90.194374 558.972961,88.073738 
	C562.459778,86.203598 564.236572,83.743790 564.057129,79.671227 
	C563.900330,76.112709 563.030273,73.240715 559.413574,71.862724 
	C554.926575,70.153183 550.807922,70.402199 547.024963,74.887474 
z"/>
<path fill="#C6E1CD" opacity="1.000000" stroke="none" 
	d="
M79.000023,140.793732 
	C79.000038,121.999161 79.268295,103.672401 78.909088,85.357964 
	C78.654640,72.384445 80.847054,70.260841 93.636009,71.057625 
	C95.832321,71.194458 98.712891,71.399796 100.001724,72.771805 
	C102.763771,75.712112 105.412910,79.160408 106.834366,82.886650 
	C112.207069,96.970718 117.070450,111.249069 123.001076,125.362732 
	C123.001076,115.734360 123.001160,106.105988 123.001038,96.477615 
	C123.000969,90.648048 122.911293,84.816734 123.025864,78.989426 
	C123.136398,73.367622 125.638863,70.986504 131.079468,71.000259 
	C136.797577,71.014717 139.956680,73.743050 139.973312,79.083244 
	C140.037613,99.736351 140.118362,120.390945 139.918396,141.042328 
	C139.866302,146.422546 137.567932,151.122559 130.562393,150.021027 
	C129.587143,149.867676 128.564713,149.955551 127.568001,150.006836 
	C117.532066,150.523209 116.884644,150.208298 112.456337,139.613205 
	C106.580765,125.555428 101.926468,110.987206 95.999321,96.644218 
	C95.999321,101.411728 96.040543,106.179657 95.990875,110.946640 
	C95.882362,121.360451 96.077087,131.794220 95.469429,142.180145 
	C95.061890,149.145630 92.360939,150.709229 84.447052,149.974213 
	C78.972069,149.465714 78.744987,145.468155 79.000023,140.793732 
z"/>
<path fill="#FFFFFF" opacity="1.000000" stroke="none" 
	d="
M357.764099,131.029617 
	C350.991791,131.003891 344.701965,131.003891 338.371490,131.003891 
	C337.888977,135.367462 337.359161,139.383667 337.020905,143.415955 
	C336.607086,148.348907 334.552185,150.066116 328.824615,149.999573 
	C323.297577,149.935379 321.471497,148.000107 320.947296,142.953629 
	C319.287109,126.970619 323.579376,112.016991 328.409332,97.118095 
	C330.333923,91.181267 332.083221,85.187363 334.029755,79.257980 
	C335.970947,73.344933 339.289062,71.021095 345.465332,71.001183 
	C346.963257,70.996353 348.461151,70.999458 349.959076,71.000626 
	C357.429840,71.006424 360.788269,73.145058 362.938171,80.166801 
	C367.061340,93.633141 371.684235,107.020836 374.573669,120.762070 
	C376.247864,128.723984 375.488770,137.357513 374.781555,145.599258 
	C374.368530,150.412277 369.629333,150.108414 365.731171,150.034790 
	C360.823151,149.942078 359.591919,146.514191 359.064484,142.732208 
	C358.526794,138.876892 358.498077,134.950577 357.764099,131.029617 
M352.002777,99.416534 
	C350.862823,95.083542 349.722870,90.750549 348.336334,85.480301 
	C345.428925,96.012016 342.731445,105.783333 339.966064,115.800552 
	C345.625122,115.800552 351.063232,115.800552 356.744476,115.800552 
	C355.173004,110.613243 353.604187,105.434685 352.002777,99.416534 
z"/>
<path fill="#C6DACD" opacity="1.000000" stroke="none" 
	d="
M207.000305,128.906479 
	C207.329926,120.864578 206.644913,113.086830 208.237411,105.807335 
	C210.389893,95.968124 219.637955,91.318916 229.205933,94.229012 
	C231.617599,94.962517 233.541626,97.299324 236.000565,99.130875 
	C236.000565,95.027397 235.886566,90.534294 236.042831,86.050613 
	C236.138397,83.309044 236.449768,80.539871 237.016068,77.857368 
	C238.098694,72.728920 241.139389,70.644257 246.516754,71.001648 
	C250.637558,71.275520 253.904007,74.422562 253.935593,79.123535 
	C254.078644,100.413002 254.181366,121.707779 253.740143,142.989059 
	C253.690933,145.362030 250.474731,149.063660 248.063812,149.722931 
	C241.705200,151.461731 238.320023,149.302032 236.084183,143.232071 
	C232.842346,150.619385 226.647018,150.908386 220.653702,149.787628 
	C217.261200,149.153229 213.663483,146.966934 211.232849,144.444214 
	C207.354660,140.419037 206.528564,134.949387 207.000305,128.906479 
M226.493179,134.967789 
	C229.584961,136.856903 233.452026,136.978546 234.482407,133.638824 
	C236.798615,126.131424 237.441116,118.187714 233.791534,110.786751 
	C233.086227,109.356453 230.407135,108.277580 228.609955,108.234695 
	C227.484482,108.207840 225.316315,110.417145 225.312149,111.628929 
	C225.286240,119.165123 225.739960,126.702980 226.493179,134.967789 
z"/>
<path fill="#FFFFFF" opacity="1.000000" stroke="none" 
	d="
M503.999573,135.896957 
	C503.999390,138.211411 504.129120,140.053833 503.975189,141.872223 
	C503.461273,147.943939 500.310028,150.255890 493.076233,149.999603 
	C488.755554,149.846527 486.015259,146.518280 486.009369,141.242249 
	C485.986847,121.096741 485.982086,100.951172 486.010559,80.805672 
	C486.019592,74.419121 488.881958,71.082436 494.244263,71.000374 
	C499.976990,70.912651 503.818329,74.639992 503.966248,80.777718 
	C504.116699,87.021378 503.999481,93.271484 503.999481,98.689911 
	C507.063385,97.117310 509.991089,94.805542 513.244690,94.174728 
	C516.427979,93.557541 520.284119,93.871750 523.242615,95.160110 
	C529.474976,97.874130 532.864563,102.987854 533.033569,110.078972 
	C533.218079,117.821541 533.818054,125.555565 533.932495,133.297806 
	C533.985229,136.862946 533.943970,140.667908 532.758728,143.933487 
	C531.892883,146.319183 529.390930,149.114410 527.079407,149.741898 
	C523.415039,150.736649 518.893677,150.833893 517.043091,145.982239 
	C516.085144,143.470795 515.172852,140.769714 515.091614,138.128098 
	C514.841064,129.977692 514.932922,121.813820 515.038086,113.657066 
	C515.073486,110.910286 514.602478,108.562469 511.559357,108.064316 
	C508.278046,107.527176 506.184998,108.853340 505.912506,112.521637 
	C505.345215,120.157623 504.645081,127.783737 503.999573,135.896957 
z"/>
<path fill="#C6DCCD" opacity="1.000000" stroke="none" 
	d="
M164.958054,149.107864 
	C156.362045,146.816391 151.066788,139.268021 151.023026,129.678497 
	C150.991959,122.868004 149.972229,115.772339 151.502914,109.302994 
	C154.994308,94.546951 167.985107,91.449097 180.977676,93.520576 
	C194.731903,95.713501 199.081955,105.364708 198.952881,117.229828 
	C198.888657,123.134033 198.619553,129.066010 197.936600,134.926376 
	C196.940308,143.475479 189.696060,149.656250 180.232391,149.771545 
	C178.048340,149.725433 176.502228,149.918945 174.956100,150.112457 
	C174.227768,150.078613 173.499451,150.044769 172.190063,149.769958 
	C169.392014,149.388626 167.175034,149.248245 164.958054,149.107864 
M179.005692,136.496292 
	C179.670532,134.759415 180.834686,133.043518 180.908630,131.281830 
	C181.151932,125.485558 180.912430,119.670914 181.029892,113.866806 
	C181.113098,109.756248 179.570084,107.246590 175.224258,107.002029 
	C170.588547,106.741142 169.248245,109.933044 169.077332,113.550430 
	C168.795746,119.509514 168.852402,125.496361 169.043503,131.462631 
	C169.228195,137.229172 172.501480,139.083817 179.005692,136.496292 
z"/>
<path fill="#C6D8CD" opacity="1.000000" stroke="none" 
	d="
M312.989380,120.381668 
	C310.413666,126.654984 304.767090,125.350006 300.243378,125.853920 
	C294.688416,126.472717 289.011993,126.001549 283.356049,126.001549 
	C283.190155,126.841980 283.042786,127.296959 283.018219,127.758461 
	C282.813568,131.606842 282.516266,136.039810 286.654297,137.652206 
	C290.379272,139.103668 294.046387,137.951950 297.289703,134.564941 
	C299.084930,132.690186 303.055542,131.717606 305.707855,132.199051 
	C308.044983,132.623306 311.224182,135.391525 311.624969,137.567902 
	C312.039246,139.817307 310.198730,143.384506 308.222198,145.013031 
	C300.332001,151.513992 276.413086,153.416580 269.397156,142.870300 
	C267.899963,140.619766 265.587128,138.210846 265.527435,135.827866 
	C265.284637,126.134804 264.822388,116.278244 266.277100,106.762650 
	C267.546021,98.462257 274.614380,93.997345 283.025452,94.057289 
	C288.918030,94.099281 294.847809,94.356926 300.686310,95.102745 
	C307.135742,95.926605 312.679993,103.861244 312.983887,111.953308 
	C313.083771,114.613014 312.998383,117.279671 312.989380,120.381668 
M289.482849,116.000870 
	C291.601105,116.000870 293.719360,116.000870 297.589478,116.000870 
	C295.492554,112.297470 294.520294,108.831131 292.234436,107.131187 
	C290.589661,105.908005 286.137085,106.023521 284.837402,107.372673 
	C283.102661,109.173393 283.209717,112.748466 282.418976,116.000587 
	C285.265869,116.000587 286.901855,116.000587 289.482849,116.000870 
z"/>
<path fill="#FFFFFF" opacity="1.000000" stroke="none" 
	d="
M460.387695,127.249588 
	C464.149353,126.689804 467.621948,125.754280 470.911926,126.191879 
	C474.042175,126.608246 476.263336,128.655701 476.087616,132.714355 
	C475.692047,141.850723 467.216583,149.699539 456.823425,149.985199 
	C453.495117,150.076675 450.162201,149.996887 446.831390,150.000244 
	C437.482849,150.009644 428.851196,141.132004 427.785217,132.536682 
	C426.678070,123.609146 426.783173,114.943062 429.088104,106.385826 
	C431.183105,98.608185 437.209778,95.371658 444.776459,93.917320 
	C451.699707,92.586632 458.155426,93.429565 464.653259,95.906181 
	C471.685089,98.586342 476.526276,105.335068 475.938019,112.631836 
	C475.814606,114.162514 475.172485,116.741531 474.325684,116.939491 
	C470.134369,117.919319 465.710846,118.975807 461.546173,118.489532 
	C459.805573,118.286293 457.491333,114.437981 457.233765,112.053032 
	C456.825012,108.267998 454.757355,107.175537 451.878174,107.097015 
	C448.899689,107.015800 445.906494,107.584755 445.959808,111.817169 
	C446.051666,119.108253 445.802460,126.409439 446.105316,133.689377 
	C446.238586,136.892471 448.402985,138.410721 451.897369,138.064301 
	C454.920563,137.764603 457.160583,137.526962 457.181000,133.465286 
	C457.191071,131.463455 459.015411,129.470718 460.387695,127.249588 
z"/>
<path fill="#FFFFFF" opacity="1.000000" stroke="none" 
	d="
M584.760803,131.384857 
	C581.360779,122.333061 577.934082,113.702309 575.054260,104.892815 
	C573.103455,98.925507 575.089172,95.570511 580.603638,93.799889 
	C584.612976,92.512550 589.229614,95.365891 590.966431,100.503365 
	C593.220154,107.169769 595.255432,113.910004 597.793884,121.907425 
	C599.727417,115.190598 601.010925,109.368340 603.131165,103.868607 
	C604.439392,100.475029 606.651245,97.228363 609.138306,94.547440 
	C611.612366,91.880554 615.322327,92.726280 617.269470,95.114517 
	C619.019104,97.260445 620.696289,101.034218 619.987915,103.350677 
	C616.434387,114.971085 612.090515,126.349991 608.014832,137.810364 
	C607.371704,139.618805 606.807922,141.471329 605.981506,143.195190 
	C604.563843,146.152481 603.819824,149.640808 599.453003,150.060410 
	C594.639343,150.522919 591.218750,149.433533 589.663818,144.307312 
	C588.367310,140.033173 586.552368,135.916321 584.760803,131.384857 
z"/>
<path fill="#FFFFFF" opacity="1.000000" stroke="none" 
	d="
M646.114380,135.957733 
	C646.700317,136.417969 647.286255,136.878189 648.020569,138.007202 
	C651.321228,138.719925 656.002197,140.104309 657.350586,138.566513 
	C662.167603,133.072922 666.778198,131.596466 672.833069,136.000427 
	C672.833069,136.000427 672.990479,136.430954 673.000610,136.965515 
	C673.021423,137.704514 673.032043,137.908951 673.042664,138.113373 
	C673.042664,138.113373 672.990540,138.569016 672.578613,138.847183 
	C670.553284,140.700485 669.157410,142.625641 667.287354,143.787628 
	C660.666565,147.901459 653.130249,148.450836 645.704407,147.819351 
	C636.607483,147.045761 628.999512,139.110458 629.173096,131.383896 
	C629.295593,125.932007 629.901001,120.488831 629.961304,115.038132 
	C630.089233,103.471016 633.531067,99.032425 644.826416,95.947426 
	C646.356750,95.529465 647.615784,94.118118 649.000366,93.166733 
	C649.446655,93.115501 649.892883,93.064278 650.742920,93.440964 
	C652.712524,94.621201 654.221130,95.546501 655.856689,96.088684 
	C658.942200,97.111488 662.457886,97.314522 665.159485,98.924393 
	C672.167358,103.100372 672.134888,110.251953 672.047913,117.355354 
	C671.999084,121.347191 670.329468,123.110619 666.340149,123.026703 
	C661.036560,122.915146 655.708618,122.737503 650.433777,123.143211 
	C648.577087,123.286011 646.846252,125.065018 645.057983,126.096947 
	C645.057983,126.096962 645.009155,126.009048 644.686340,126.070702 
	C640.852478,130.090500 641.506714,133.761780 646.114380,135.957733 
M644.180969,117.486938 
	C648.049011,117.953140 651.914307,118.680885 655.786926,118.722237 
	C656.912476,118.734253 658.495850,116.991158 659.113953,115.692932 
	C660.962036,111.811218 660.224365,108.203293 656.768127,105.491119 
	C653.927856,103.262306 647.234741,103.237869 645.110718,105.698517 
	C642.286194,108.970642 640.510315,112.706352 644.180969,117.486938 
z"/>
<path fill="#FFFFFF" opacity="1.000000" stroke="none" 
	d="
M555.850647,149.999542 
	C548.823059,149.866348 546.043640,147.104782 546.015015,140.399033 
	C545.963074,128.261078 546.042786,116.122528 545.981506,103.984657 
	C545.953125,98.363419 549.024048,93.547340 554.636475,93.029297 
	C559.438293,92.586067 563.726990,96.621429 563.891724,102.771767 
	C564.234497,115.565857 564.291382,128.386246 563.827271,141.172653 
	C563.676270,145.330444 562.286316,150.069626 555.850647,149.999542 
z"/>
<path fill="#FFFFFF" opacity="1.000000" stroke="none" 
	d="
M402.596954,100.991936 
	C402.596954,100.991936 402.699341,101.334846 402.299530,101.524323 
	C401.933136,102.475868 401.966583,103.237938 402.000000,104.375000 
	C402.000000,105.500000 402.000000,106.250000 402.036804,107.305229 
	C403.049042,107.406967 404.024536,107.203476 404.952637,106.504944 
	C404.661469,105.398956 404.417633,104.788002 404.173828,104.177048 
	C404.540924,103.184929 404.907990,102.192802 405.961273,101.084839 
	C407.805237,99.186745 408.963043,97.404495 410.120850,95.622253 
	C410.120850,95.622253 410.274536,95.297104 410.809052,95.397522 
	C411.930878,95.054359 412.518188,94.610786 413.105499,94.167206 
	C414.116547,94.115967 415.127563,94.064735 416.620178,94.468704 
	C420.030426,97.419899 421.646851,99.981529 420.214355,104.309708 
	C418.784912,108.628708 416.145447,109.084938 412.368530,109.176590 
	C410.903503,109.212143 409.482941,111.080864 408.042145,112.114487 
	C407.258972,113.024887 406.475800,113.935287 405.002625,114.979553 
	C403.541809,116.727997 402.171539,118.318611 402.105896,119.961357 
	C401.847534,126.425674 402.371948,132.938553 401.816772,139.365265 
	C401.593292,141.952301 399.946808,145.244843 397.880981,146.674286 
	C393.384918,149.785248 388.294769,146.304550 388.112427,139.820099 
	C387.785919,128.208481 387.985260,116.580551 388.079468,104.960358 
	C388.092529,103.346298 388.658203,101.707115 389.140045,100.132156 
	C390.446320,95.862114 394.660614,94.718475 398.102997,97.592026 
	C399.543365,98.794365 401.095581,99.862686 402.596954,100.991936 
z"/>
<path fill="#FFFFFF" opacity="1.000000" stroke="none" 
	d="
M648.591858,93.089447 
	C647.615784,94.118118 646.356750,95.529465 644.826416,95.947426 
	C633.531067,99.032425 630.089233,103.471016 629.961304,115.038132 
	C629.901001,120.488831 629.295593,125.932007 629.173096,131.383896 
	C628.999512,139.110458 636.607483,147.045761 645.704407,147.819351 
	C653.130249,148.450836 660.666565,147.901459 667.287354,143.787628 
	C669.157410,142.625641 670.553284,140.700485 672.499878,139.062561 
	C672.326965,146.676270 664.328308,148.952866 656.974548,149.922485 
	C653.543213,150.374908 649.998840,149.893341 646.512573,150.021606 
	C638.589722,150.313095 628.241699,144.238800 627.240295,133.721481 
	C626.436951,125.284904 627.325439,116.629799 628.049622,108.121582 
	C628.754395,99.840897 634.854736,96.216469 642.017151,94.061775 
	C643.998474,93.465706 646.123962,93.348862 648.591858,93.089447 
z"/>
<path fill="#FFFFFF" opacity="1.000000" stroke="none" 
	d="
M547.183838,74.508881 
	C550.807922,70.402199 554.926575,70.153183 559.413574,71.862724 
	C563.030273,73.240715 563.900330,76.112709 564.057129,79.671227 
	C564.236572,83.743790 562.459778,86.203598 558.972961,88.073738 
	C555.019043,90.194374 551.006836,89.149460 548.694946,86.564896 
	C546.784668,84.429398 546.978088,80.366463 546.390503,77.130142 
	C546.265869,76.443604 546.796326,75.638145 547.183838,74.508881 
z"/>
<path fill="#FFFFFF" opacity="1.000000" stroke="none" 
	d="
M402.678955,100.728577 
	C401.095581,99.862686 399.543365,98.794365 398.102997,97.592026 
	C394.660614,94.718475 390.446320,95.862114 389.140045,100.132156 
	C388.658203,101.707115 388.092529,103.346298 388.079468,104.960358 
	C387.985260,116.580551 387.785919,128.208481 388.112427,139.820099 
	C388.294769,146.304550 393.384918,149.785248 397.880981,146.674286 
	C399.946808,145.244843 401.593292,141.952301 401.816772,139.365265 
	C402.371948,132.938553 401.847534,126.425674 402.105896,119.961357 
	C402.171539,118.318611 403.541809,116.727997 404.713593,115.077744 
	C404.743011,121.247101 404.338989,127.450455 404.017700,133.658096 
	C403.906281,135.811493 404.075348,137.978607 403.986450,140.134094 
	C403.666565,147.891449 398.822601,151.675949 391.357361,149.975739 
	C387.138489,149.014862 386.247894,145.001495 386.224701,142.023621 
	C386.115540,128.012009 386.745697,113.996429 386.921021,99.979874 
	C386.986176,94.769684 391.012146,93.524811 394.406555,93.444351 
	C397.831909,93.363167 401.805573,94.822464 402.228241,99.642181 
	C402.253479,99.929893 402.576508,100.191483 402.678955,100.728577 
z"/>
<path fill="#FFFFFF" opacity="1.000000" stroke="none" 
	d="
M645.520996,126.051865 
	C646.846252,125.065018 648.577087,123.286011 650.433777,123.143211 
	C655.708618,122.737503 661.036560,122.915146 666.340149,123.026703 
	C670.329468,123.110619 671.999084,121.347191 672.047913,117.355354 
	C672.134888,110.251953 672.167358,103.100372 665.159485,98.924393 
	C662.457886,97.314522 658.942200,97.111488 655.856689,96.088684 
	C654.221130,95.546501 652.712524,94.621201 651.073181,93.517807 
	C662.432434,94.255287 671.016968,95.131836 674.393188,108.055893 
	C675.446777,112.089119 675.682190,116.750069 674.764160,120.775169 
	C673.716431,125.368958 668.966553,125.849838 664.880554,125.956993 
	C658.585571,126.122101 652.283203,126.004478 645.520996,126.051865 
z"/>
<path fill="#FFFFFF" opacity="1.000000" stroke="none" 
	d="
M672.908081,135.614227 
	C666.778198,131.596466 662.167603,133.072922 657.350586,138.566513 
	C656.002197,140.104309 651.321228,138.719925 648.105469,138.280579 
	C652.423950,138.716187 655.690125,137.271545 658.781921,133.910553 
	C663.166870,129.143814 670.367737,130.071671 672.908081,135.614227 
z"/>
<path fill="#FFFFFF" opacity="1.000000" stroke="none" 
	d="
M408.458496,112.061165 
	C409.482941,111.080864 410.903503,109.212143 412.368530,109.176590 
	C416.145447,109.084938 418.784912,108.628708 420.214355,104.309708 
	C421.646851,99.981529 420.030426,97.419899 416.993469,94.545456 
	C420.676727,93.177391 421.897583,96.147766 422.762909,98.585960 
	C424.867767,104.516571 420.329132,110.657646 414.028229,111.035347 
	C412.297241,111.139107 410.591949,111.671906 408.458496,112.061165 
z"/>
<path fill="#FFFFFF" opacity="1.000000" stroke="none" 
	d="
M646.055237,135.545624 
	C641.506714,133.761780 640.852478,130.090500 644.730347,126.095047 
	C645.396790,129.082993 645.696472,132.108246 646.055237,135.545624 
z"/>
<path fill="#FFFFFF" opacity="1.000000" stroke="none" 
	d="
M409.860443,95.786362 
	C408.963043,97.404495 407.805237,99.186745 406.266602,100.963493 
	C407.123840,99.288818 408.361938,97.619652 409.860443,95.786362 
z"/>
<path fill="#C6DCCD" opacity="1.000000" stroke="none" 
	d="
M165.134811,149.443848 
	C167.175034,149.248245 169.392014,149.388626 171.828003,149.819031 
	C169.801880,149.999329 167.556717,149.889587 165.134811,149.443848 
z"/>
<path fill="#C6DCCD" opacity="1.000000" stroke="none" 
	d="
M175.125336,150.444336 
	C176.502228,149.918945 178.048340,149.725433 179.820801,149.820496 
	C178.462952,150.331467 176.878769,150.553848 175.125336,150.444336 
z"/>
<path fill="#FFFFFF" opacity="1.000000" stroke="none" 
	d="
M404.032257,104.408890 
	C404.417633,104.788002 404.661469,105.398956 404.577637,106.504959 
	C403.500000,107.000000 402.750000,107.000000 402.000000,107.000000 
	C402.000000,106.250000 402.000000,105.500000 402.208313,104.375031 
	C402.416656,104.000069 402.833313,104.000298 402.833313,104.000298 
	C403.185760,104.213776 403.538239,104.427254 404.032257,104.408890 
z"/>
<path fill="#FFFFFF" opacity="1.000000" stroke="none" 
	d="
M402.907715,103.752792 
	C402.833313,104.000298 402.416656,104.000069 402.208344,104.000031 
	C401.966583,103.237938 401.933136,102.475868 402.362823,101.691696 
	C402.877991,102.281487 402.930054,102.893394 402.907715,103.752792 
z"/>
<path fill="#FFFFFF" opacity="1.000000" stroke="none" 
	d="
M412.861694,94.089897 
	C412.518188,94.610786 411.930878,95.054359 410.968933,95.315262 
	C411.268829,94.759254 411.943359,94.385918 412.861694,94.089897 
z"/>
<path fill="#FFFFFF" opacity="1.000000" stroke="none" 
	d="
M673.310791,138.022415 
	C673.032043,137.908951 673.021423,137.704514 673.026611,137.193268 
	C673.221313,137.234772 673.400085,137.583115 673.310791,138.022415 
z"/>
<path fill="#000000" opacity="1.000000" stroke="none" 
	d="
M352.019104,99.836334 
	C353.604187,105.434685 355.173004,110.613243 356.744476,115.800552 
	C351.063232,115.800552 345.625122,115.800552 339.966064,115.800552 
	C342.731445,105.783333 345.428925,96.012016 348.336334,85.480301 
	C349.722870,90.750549 350.862823,95.083542 352.019104,99.836334 
z"/>
<path fill="#000000" opacity="1.000000" stroke="none" 
	d="
M226.263885,134.604034 
	C225.739960,126.702980 225.286240,119.165123 225.312149,111.628929 
	C225.316315,110.417145 227.484482,108.207840 228.609955,108.234695 
	C230.407135,108.277580 233.086227,109.356453 233.791534,110.786751 
	C237.441116,118.187714 236.798615,126.131424 234.482407,133.638824 
	C233.452026,136.978546 229.584961,136.856903 226.263885,134.604034 
z"/>
<path fill="#000000" opacity="1.000000" stroke="none" 
	d="
M178.700958,136.780380 
	C172.501480,139.083817 169.228195,137.229172 169.043503,131.462631 
	C168.852402,125.496361 168.795746,119.509514 169.077332,113.550430 
	C169.248245,109.933044 170.588547,106.741142 175.224258,107.002029 
	C179.570084,107.246590 181.113098,109.756248 181.029892,113.866806 
	C180.912430,119.670914 181.151932,125.485558 180.908630,131.281830 
	C180.834686,133.043518 179.670532,134.759415 178.700958,136.780380 
z"/>
<path fill="#000000" opacity="1.000000" stroke="none" 
	d="
M289.010345,116.000732 
	C286.901855,116.000587 285.265869,116.000587 282.418976,116.000587 
	C283.209717,112.748466 283.102661,109.173393 284.837402,107.372673 
	C286.137085,106.023521 290.589661,105.908005 292.234436,107.131187 
	C294.520294,108.831131 295.492554,112.297470 297.589478,116.000870 
	C293.719360,116.000870 291.601105,116.000870 289.010345,116.000732 
z"/>
<path fill="#FFFFFF" opacity="1.000000" stroke="none" 
	d="
M643.889404,117.206367 
	C640.510315,112.706352 642.286194,108.970642 645.110718,105.698517 
	C647.234741,103.237869 653.927856,103.262306 656.768127,105.491119 
	C660.224365,108.203293 660.962036,111.811218 659.113953,115.692932 
	C658.495850,116.991158 656.912476,118.734253 655.786926,118.722237 
	C651.914307,118.680885 648.049011,117.953140 643.889404,117.206367 
M652.232300,106.001701 
	C645.399048,106.187775 644.372925,107.660461 645.488770,115.832054 
	C649.534790,115.832054 653.597229,115.832054 657.914124,115.832054 
	C658.130310,111.496628 657.821777,107.700897 652.232300,106.001701 
z"/>
<path fill="#FFFFFF" opacity="1.000000" stroke="none" 
	d="
M402.036804,107.305229 
	C402.750000,107.000000 403.500000,107.000000 404.625000,106.999992 
	C404.024536,107.203476 403.049042,107.406967 402.036804,107.305229 
z"/>
<path fill="#000000" opacity="1.000000" stroke="none" 
	d="
M652.649658,106.012207 
	C657.821777,107.700897 658.130310,111.496628 657.914124,115.832054 
	C653.597229,115.832054 649.534790,115.832054 645.488770,115.832054 
	C644.372925,107.660461 645.399048,106.187775 652.649658,106.012207 
z"/>
</svg>